
      <svg data-logo="logo" xmlns="http://www.w3.org/2000/svg" viewBox="0 0 150 42">
        <g id="logogram" transform="translate(0, 1) rotate(0) "><path d="M13.0964 20.3536L17.6262 22.4473L17.046 27.6527L8.94876 36.8282C4.2486 33.8023 0.898178 28.8615 0 23.108L13.0964 20.3536Z" fill="#15E3FF"/><path d="M25.183 25.94L31.2414 36.3789C27.992 38.6605 24.0331 40 19.7612 40C18.3744 40 17.0206 39.8587 15.7133 39.59L17.046 27.6527L20.4765 23.7656L25.183 25.94Z" fill="#348DFC"/><path d="M39.1022 14.881C39.5332 16.5143 39.763 18.2294 39.763 19.9982C39.763 24.1145 38.5192 27.9403 36.3874 31.1207L25.184 25.9405L22.5551 21.4123L25.8574 17.6692L39.1022 14.881Z" fill="#FD4873"/><path d="M17.046 27.6524L17.0458 27.6527L17.1686 26.552L17.046 27.6524Z" fill="#FFC700"/><path d="M20.132 0C26.1505 0.109415 31.5194 2.877 35.1148 7.17842L25.8561 17.6694L20.9792 18.6959L18.519 14.4574L20.132 0Z" fill="#FFC700"/><path d="M18.519 14.4574L17.9745 19.3269L13.0991 20.353L0.514709 14.5347C2.09964 8.94044 6.05794 4.3436 11.2327 1.9007L18.519 14.4574Z" fill="#00E7B9"/></g>
        <g id="logotype" transform="translate(42, 8.5)"><path fill="#072364" d="M14.99 25L3.58 25L3.58 0.15L14.85 0.15L14.85 3.51L7.57 3.51L7.57 10.68L14.04 10.68L14.04 13.87L7.57 13.87L7.57 21.64L14.99 21.64L14.99 25ZM24.54 25L19.89 25L15.55 7.18L19.50 7.18L22.30 21.15L25.07 7.18L28.88 7.18L24.54 25ZM35.88 25.42L35.88 25.42Q34.06 25.42 32.64 24.53Q31.23 23.63 30.44 21.59Q29.65 19.54 29.65 16.11L29.65 16.11Q29.65 12.68 30.46 10.63Q31.26 8.58 32.66 7.67Q34.06 6.76 35.88 6.76L35.88 6.76Q37.88 6.76 39.07 7.67Q40.26 8.58 40.83 10.07Q41.41 11.56 41.52 13.29Q41.62 15.02 41.48 16.67L41.48 16.67L33.57 16.67L33.57 17.93Q33.57 20.48 34.18 21.46Q34.80 22.45 35.95 22.45L35.95 22.45Q37.04 22.45 37.47 21.57Q37.91 20.70 38.12 18.63L38.12 18.63L41.59 18.91Q41.38 22.41 39.80 23.91Q38.23 25.42 35.88 25.42ZM33.57 14.08L33.57 14.08L33.57 14.18L38.09 14.18L38.09 13.97Q38.09 11.49 37.56 10.58Q37.04 9.67 35.95 9.67L35.95 9.67Q34.83 9.67 34.20 10.63Q33.57 11.59 33.57 14.08ZM47.89 25L43.97 25L43.97 7.18L47.85 7.18L47.85 9.32Q48.48 7.99 49.51 7.38Q50.55 6.76 51.70 6.76L51.70 6.76Q53.56 6.76 54.64 8.02Q55.73 9.28 55.73 11.84L55.73 11.84L55.73 25L51.81 25L51.81 12.50Q51.81 11.07 51.33 10.47Q50.86 9.88 49.99 9.88L49.99 9.88Q49.15 9.88 48.52 10.46Q47.89 11.03 47.89 12.57L47.89 12.57L47.89 25ZM63.60 25.42L63.60 25.42Q61.54 25.42 60.43 24.32Q59.33 23.21 59.33 21.01L59.33 21.01L59.33 10.16L57.44 10.16L57.44 7.18L59.47 7.18L59.93 2.60L63.25 2.60L63.25 7.18L66.33 7.18L66.33 10.16L63.25 10.16L63.25 20.24Q63.25 21.32 63.74 21.75Q64.23 22.16 65.00 22.16L65.00 22.16Q65.35 22.16 65.72 22.13Q66.09 22.09 66.58 21.95L66.58 21.95L66.58 24.89Q65.11 25.42 63.60 25.42ZM72.60 25L68.61 25L68.61 0.15L72.60 0.15L72.60 10.79L77.53 10.79L77.53 0.15L81.52 0.15L81.52 25L77.53 25L77.53 14.15L72.60 14.15L72.60 25ZM88.45 25.42L88.45 25.42Q86.74 25.42 85.60 24.23Q84.46 23.04 84.46 20.38L84.46 20.38L84.46 7.18L88.38 7.18L88.38 19.68Q88.38 21.22 88.87 21.76Q89.36 22.30 90.17 22.30L90.17 22.30Q90.94 22.30 91.57 21.75Q92.20 21.18 92.20 19.68L92.20 19.68L92.20 7.18L96.12 7.18L96.12 25L92.23 25L92.23 22.93Q91.60 24.23 90.62 24.82Q89.64 25.42 88.45 25.42ZM104.10 25.42L104.10 25.42Q102.03 25.42 100.93 24.32Q99.83 23.21 99.83 21.01L99.83 21.01L99.83 10.16L97.94 10.16L97.94 7.18L99.97 7.18L100.42 2.60L103.75 2.60L103.75 7.18L106.83 7.18L106.83 10.16L103.75 10.16L103.75 20.24Q103.75 21.32 104.24 21.75Q104.73 22.16 105.50 22.16L105.50 22.16Q105.85 22.16 106.21 22.13Q106.58 22.09 107.07 21.95L107.07 21.95L107.07 24.89Q105.60 25.42 104.10 25.42Z"/></g>
        
      </svg>
    